<svg width="160" height="160" viewBox="0 0 160 160" fill="none" xmlns="http://www.w3.org/2000/svg">
<path d="M3.05881e-06 140.8C1.98812e-06 147.521 1.45278e-06 150.881 1.30792 153.448C2.4584 155.706 4.29417 157.542 6.55211 158.692C9.11905 160 12.4794 160 19.2 160L140.8 160C147.521 160 150.881 160 153.448 158.692C155.706 157.542 157.542 155.706 158.692 153.448C160 150.881 160 147.521 160 140.8L160 19.2C160 12.4794 160 9.11908 158.692 6.55214C157.542 4.2942 155.706 2.45843 153.448 1.30795C150.881 2.63809e-05 147.521 2.57933e-05 140.8 2.46182e-05L19.2 3.35703e-06C12.4794 2.18196e-06 9.11908 1.59443e-06 6.55214 1.30792C4.29419 2.4584 2.45843 4.29417 1.30795 6.55211C2.40373e-05 9.11905 2.35019e-05 12.4794 2.24313e-05 19.2L3.05881e-06 140.8Z" fill="url(#paint0_linear_664_3304)"/>
<g clip-path="url(#clip0_664_3304)">
<path d="M80 44C60.1194 44 44 60.1157 44 80.0009C44 99.8843 60.1194 116 80 116C99.884 116 116 99.8843 116 79.9991C116 60.1174 99.884 44 80 44ZM80 52.6282C95.0943 52.6282 107.372 64.9072 107.372 80.0009C107.372 95.0946 95.0943 107.374 80 107.374C64.9057 107.374 52.628 95.0946 52.628 80.0009C52.628 64.9054 64.9057 52.6282 80 52.6282Z" fill="white"/>
<path d="M80.0005 60.8438C69.4199 60.8438 60.845 69.4169 60.845 80.0012C60.845 90.5804 69.4199 99.1586 80.0005 99.1586C90.581 99.1586 99.1559 90.5804 99.1559 79.9995C99.1559 69.4169 90.581 60.8438 80.0005 60.8438ZM80.0005 69.4719C85.805 69.4719 90.5296 74.1946 90.5296 80.0012C90.5296 85.8061 85.805 90.5322 80.0005 90.5322C74.1959 90.5322 69.4713 85.8061 69.4713 80.0012C69.4713 74.1946 74.1959 69.4719 80.0005 69.4719Z" fill="white"/>
</g>
<defs>
<linearGradient id="paint0_linear_664_3304" x1="49" y1="-19" x2="69.2373" y2="206.202" gradientUnits="userSpaceOnUse">
<stop offset="0.226599" stop-color="#F0913C"/>
<stop offset="0.839749" stop-color="#D26E14"/>
</linearGradient>
<clipPath id="clip0_664_3304">
<rect width="72" height="72" fill="white" transform="translate(44 44)"/>
</clipPath>
</defs>
</svg>
