<svg width="160" height="160" viewBox="0 0 160 160" fill="none" xmlns="http://www.w3.org/2000/svg">
<path d="M0 160L160 160L160 2.79753e-05L2.54901e-05 0L0 160Z" fill="url(#paint0_linear_662_1904)"/>
<path fill-rule="evenodd" clip-rule="evenodd" d="M79.3216 97.4416C64.9835 96.3177 60.3263 88.2972 59.0262 82.7483C59.0262 82.7483 61.8297 83.5221 65.4919 84.0336C65.5023 84.0352 66.4822 84.1741 66.502 83.908C66.5404 83.3955 58.247 80.9056 54.2287 73.8807C51.0931 68.3986 50.9012 63.1421 50.9012 63.1421C59.3153 64.7988 64.4861 66.8745 90.9575 66.2016C99.1548 66.2016 102.812 67.931 102.812 78.1769C102.812 85.3317 99.7438 97.3027 79.3216 97.4416ZM116 77.7942C116 76.4534 114.607 75.5935 112.884 75.0415L112.918 75.0056C112.918 75.0056 112.816 74.9971 112.652 74.9698C112.375 74.887 112.091 74.8111 111.804 74.7427C111.417 74.5968 111.001 74.3734 110.69 74.0303C110.33 73.6338 110.112 73.1293 109.981 72.698C108.889 65.2659 104.757 58.4665 90.9575 58.4665H66.9896C66.1781 58.4387 63.9756 58.3093 58.757 57.7268C53.6959 57.1619 49.1676 55.5352 49.1255 55.5202L44.683 53.9004L44.1315 58.7134C44.0644 59.298 42.6245 72.8739 51.1549 79.7636L51.1476 79.8432C50.8196 83.4879 52.1868 91.439 59.5975 97.8702C75.6614 111.812 97.4944 103.06 103.08 96.928C106.575 93.0893 109.082 88.5558 109.949 83.1149C110.075 82.6623 110.299 82.1038 110.69 81.6731C110.859 81.4865 111.06 81.3369 111.27 81.214C111.83 81.067 112.39 80.8965 112.917 80.6977H112.918C114.626 80.0559 116 79.126 116 77.7942ZM94.9925 70.8436C93.133 70.8436 91.8813 72.0204 91.8813 74.1901C91.8813 76.2124 93.133 77.3528 94.9925 77.3528C96.8176 77.3528 98.1411 76.1391 98.1411 74.1532C98.1411 71.9835 97.0318 70.8436 94.9925 70.8436Z" fill="white"/>
<defs>
<linearGradient id="paint0_linear_662_1904" x1="178.571" y1="274.286" x2="-48.5291" y2="-110.48" gradientUnits="userSpaceOnUse">
<stop offset="0.318171" stop-color="#3291F0"/>
<stop offset="0.938" stop-color="#73B9FF"/>
</linearGradient>
</defs>
</svg>
