<svg width="160" height="160" viewBox="0 0 160 160" fill="none" xmlns="http://www.w3.org/2000/svg">
<path d="M0 160L160 160L160 2.79753e-05L2.54901e-05 0L0 160Z" fill="url(#paint0_linear_665_2799)"/>
<path d="M114.984 54.1992C119.415 54.1992 123 57.7857 123 62.2186V88.9493C123 93.3822 119.415 96.9687 114.984 96.9687H89.8799L93.326 105.411L78.1716 96.9687H45.0167C40.5856 96.9687 37.0003 93.3822 37.0003 88.9493V62.2186C36.9654 57.8225 40.5508 54.1992 44.9818 54.1992H114.984ZM115.977 83.7864C117.795 80.7786 118.704 77.4907 118.704 73.8899C118.739 71.1622 118.143 68.8885 117.025 66.9992C115.768 64.795 113.913 63.4659 111.431 62.9425C110.811 62.8075 110.178 62.7359 109.543 62.7318C106.187 62.7318 103.462 64.4801 101.328 67.9786C99.5098 70.9516 98.6027 74.2395 98.6027 77.8403C98.6027 80.5332 99.1617 82.8417 100.28 84.7658C101.539 86.97 103.39 88.297 105.874 88.8225C106.494 88.9575 107.127 89.029 107.762 89.0331C111.153 89.0331 113.878 87.2828 115.977 83.7864ZM94.0918 83.7864C95.9101 80.7786 96.8192 77.4907 96.8192 73.8899C96.8192 71.1622 96.2582 68.8885 95.1402 66.9992C93.8809 64.795 91.995 63.4659 89.5481 62.9425C88.9277 62.8075 88.295 62.7359 87.6582 62.7318C84.3042 62.7318 81.5768 64.4801 79.4432 67.9786C77.6249 70.9516 76.7178 74.2395 76.7178 77.8403C76.7178 80.5332 77.2747 82.8417 78.3948 84.7658C79.6541 86.97 81.5072 88.297 83.9889 88.8225C84.6093 88.9575 85.242 89.029 85.8768 89.0331C89.2676 89.0331 91.995 87.2828 94.0918 83.7864ZM90.316 70.9169C90.7358 72.0006 90.9446 73.0843 90.9446 74.0985C90.9815 75.0084 90.875 75.8815 90.701 76.6871C90.2116 78.9956 89.3372 80.709 88.0432 81.8623C87.0296 82.7722 86.0856 83.1566 85.2113 82.9828C84.3738 82.8069 83.6735 82.0729 83.1494 80.7091C82.7296 79.6253 82.5207 78.5396 82.5207 77.5254C82.5207 76.6523 82.5904 75.7772 82.7644 74.9736C83.0941 73.4748 83.7247 72.0599 84.6175 70.8126C85.7723 69.0971 86.9948 68.3978 88.2541 68.6431C89.0936 68.819 89.7918 69.553 90.316 70.9169ZM110.174 68.6431C111.013 68.8169 111.712 69.553 112.236 70.9169C112.655 72.0006 112.864 73.0843 112.864 74.0985C112.864 75.0084 112.795 75.8835 112.621 76.6871C112.131 78.9956 111.257 80.709 109.963 81.8623C108.949 82.7722 108.005 83.1566 107.131 82.9828C106.294 82.8069 105.593 82.0729 105.069 80.7091C104.649 79.6253 104.44 78.5396 104.44 77.5254C104.44 76.6523 104.51 75.7772 104.684 74.9736C105.014 73.4748 105.644 72.0578 106.537 70.8105C107.69 69.0971 108.914 68.3978 110.174 68.6431ZM72.6267 89.2764C72.4178 86.0948 72.7311 81.6537 73.6054 75.953C74.5146 70.0765 75.6326 65.846 76.9963 63.3269C77.2768 62.8014 77.3812 62.2779 77.3464 61.6481C77.2768 60.8446 76.9267 60.18 76.2632 59.6545C75.5998 59.1311 74.8647 58.8857 74.06 58.9552C73.0464 59.0248 72.2765 59.5155 71.7523 60.4949C69.586 64.4453 68.0482 70.8453 67.1391 79.7296C65.8102 76.3722 64.6901 72.4197 63.8178 67.768C63.4329 65.7049 62.4889 64.7255 60.9512 64.8318C59.9008 64.9013 59.0285 65.6006 58.3282 66.9297L50.6722 81.5126C49.4129 76.4417 48.2253 70.2523 47.1421 62.9425C46.8964 61.1247 45.8828 60.2843 44.0993 60.4254C43.1206 60.4949 42.3875 60.8446 41.8981 61.5091C41.4088 62.1389 41.1979 62.9425 41.3391 63.8524C43.4011 76.9672 45.3238 85.8147 47.1073 90.3969C47.8055 92.0736 48.6102 92.8792 49.5542 92.8097C51.0223 92.7054 52.7689 90.675 54.8329 86.7246C55.9161 84.4856 57.5951 81.1282 59.868 76.6523C61.7538 83.2609 64.342 88.2275 67.5936 91.5502C68.5028 92.4948 69.4447 92.914 70.3538 92.8445C71.1585 92.775 71.7871 92.3558 72.2069 91.5849C72.5571 90.9204 72.6963 90.1516 72.6267 89.2764Z" fill="white"/>
<defs>
<linearGradient id="paint0_linear_665_2799" x1="178.571" y1="274.286" x2="-48.5291" y2="-110.48" gradientUnits="userSpaceOnUse">
<stop offset="0.318171" stop-color="#7F54B3"/>
<stop offset="0.938" stop-color="#A880D9"/>
</linearGradient>
</defs>
</svg>
