<svg width="160" height="160" viewBox="0 0 160 160" fill="none" xmlns="http://www.w3.org/2000/svg">
<rect width="160" height="160" fill="url(#paint0_linear_662_1650)"/>
<path d="M0 160L160 160L160 2.79753e-05L2.54901e-05 0L0 160Z" fill="url(#paint1_linear_662_1650)"/>
<path d="M39.3337 77.0747C39.3126 76.4383 39.2027 75.8771 39.0082 75.3932C38.8116 74.9093 38.5536 74.5071 38.2323 74.189C37.9173 73.873 37.541 73.6321 37.1308 73.4797C36.7207 73.3272 36.2894 73.2477 35.856 73.2499C34.9596 73.2499 34.0146 73.5857 33.3593 74.2575C32.7039 74.9314 32.3318 75.8705 32.2409 77.0747H39.3337ZM32.1014 79.9803C32.1711 81.3039 32.6278 82.3556 33.3064 83.1334C33.985 83.9134 34.9596 84.3023 36.0611 84.3023C36.7968 84.3023 37.4458 84.1322 38.0082 83.7897C38.5706 83.4472 38.9321 82.9699 39.0927 82.3556H43.5746C43.0461 84.1498 42.2639 85.533 40.9532 86.4986C39.6445 87.4687 38.0822 87.9526 36.2683 87.9526C31.4439 87.9526 28 84.7884 28 78.4579C28 77.1123 28.1839 75.8948 28.5518 74.8076C28.9175 73.7205 29.4524 72.7881 30.1522 72.0103C30.854 71.2303 31.7081 70.6337 32.7208 70.2205C33.7292 69.8073 34.6827 69.5996 35.9935 69.5996C38.6107 69.5996 40.4225 70.4614 41.7671 72.1871C43.1095 73.9105 43.7311 76.509 43.7311 79.9803H32.1014Z" fill="white"/>
<path d="M54.1239 84.0977C56.7924 84.0977 58.1245 82.3048 58.1245 78.7167C58.1245 77.1578 57.756 75.8904 57.0189 74.91C56.2796 73.9318 55.3272 73.4416 54.1594 73.4416C53.0405 73.4416 52.1058 73.9009 51.3555 74.8217C50.6051 75.7424 50.2299 76.9458 50.2299 78.4318C50.2299 82.2098 51.5286 84.0977 54.1239 84.0977ZM45.4789 95.8181V69.7851H49.9457L49.979 71.9181C51.0158 70.2731 52.6831 69.6879 54.8743 69.6879C55.9688 69.6879 56.808 69.9021 57.7493 70.3261C58.6862 70.7478 59.5098 71.3771 60.1603 72.1676C60.8285 72.9691 61.3525 73.9495 61.7343 75.1043C62.114 76.2613 62.3049 77.5729 62.3049 79.0346C62.3049 80.3573 62.1451 81.5673 61.8231 82.6647C61.5012 83.7621 61.0306 84.7138 60.4112 85.5153C59.8117 86.3014 59.0347 86.9373 58.1445 87.3723C57.2498 87.8095 56.4106 88.0281 55.2672 88.0281C53.1004 88.0281 51.3621 87.4738 50.0523 85.6566V95.8181H45.4789ZM73.9315 82.3732C73.7117 82.8259 73.4097 83.2322 73.039 83.5766C72.6549 83.9277 72.2065 84.2037 71.718 84.3914C71.1874 84.5945 70.6235 84.6961 70.0574 84.6917C68.5566 84.6917 67.8063 84.0425 67.8063 82.7442C67.8063 81.989 68.0549 81.4105 68.5566 81.0086C69.0562 80.609 69.9731 80.2778 71.3073 80.0172C71.6248 79.9576 71.9134 79.898 72.1754 79.8384C72.1754 79.8384 73.4586 79.5668 74.3022 79.3394L74.2711 80.9027C74.2734 81.4127 74.1579 81.9162 73.9315 82.3732ZM78.6269 73.5918C78.365 72.7306 77.9631 72.0108 77.3815 71.4323C76.7976 70.8538 76.0339 70.4122 75.0704 70.1053C74.1046 69.7983 73.0035 69.6438 71.6226 69.6438C70.2173 69.6438 69.0295 69.7917 68.0527 70.0876C67.0759 70.3813 66.2855 70.8008 65.6794 71.344C65.0711 71.8872 64.6315 72.5871 64.3585 73.3423C64.0832 74.0974 63.9344 74.8018 63.9122 75.8705H68.2347C68.3546 75.016 68.6455 74.4154 69.1094 73.9429C69.5734 73.4725 70.3416 73.2098 71.4139 73.2098C72.3197 73.2098 73.039 73.3555 73.5762 73.6757C74.1113 73.9936 74.3799 74.4308 74.3799 74.9961C74.3799 75.6099 74.1757 76.0494 73.7716 76.3209C73.3676 76.5925 72.5817 76.8089 71.4139 76.9745C70.3305 77.1247 69.2538 77.3079 68.1815 77.5221C67.1935 77.7231 66.341 78.0366 65.6261 78.4605C64.9157 78.8801 64.3363 79.4873 63.9478 80.2138C63.5437 80.9557 63.3395 81.9537 63.3395 83.2035C63.3395 84.621 63.8101 85.7714 64.7514 86.6569C65.6927 87.5423 67.1758 87.9839 69.1983 87.9839C70.3904 87.9839 71.4361 87.8006 72.3419 87.4363C73.1766 87.1007 73.9226 86.5774 74.522 85.9083C74.5686 86.5001 74.6641 86.9815 74.8084 87.4098H78.9777V76.513C78.9777 75.4267 78.8889 74.4529 78.6269 73.5918ZM88.7039 84.0536C89.8472 84.0536 90.793 83.623 91.5434 82.7618C92.2938 81.9007 92.6689 80.726 92.6689 79.24C92.6689 75.5106 91.3458 73.6448 88.7039 73.6448C86.0598 73.6448 84.7388 75.4156 84.7388 78.9552C84.7388 80.514 85.114 81.7528 85.8644 82.6735C86.6126 83.5943 87.5605 84.0536 88.7039 84.0536ZM92.9731 85.4535C92.8199 85.809 92.6112 86.0739 92.3448 86.2992C92.0318 86.5641 91.6388 86.8622 91.1682 87.0985C90.2979 87.5357 89.2922 87.6659 88.1489 87.6659C86.6969 87.6659 85.6535 87.412 84.6656 86.9042C83.6776 86.3963 82.8806 85.7295 82.2745 84.9037C81.6662 84.0778 81.2244 83.1218 80.9514 82.0354C80.6783 80.9468 80.5384 79.8295 80.5406 78.7079C80.5406 77.3631 80.7427 76.1288 81.149 75.0094C81.553 73.8877 82.1014 72.9316 82.7918 72.1411C83.4623 71.3639 84.2904 70.7368 85.2206 70.2996C86.1486 69.8624 86.97 69.6438 88.0423 69.6438C90.2335 69.6438 91.8764 70.1627 92.9731 71.9092V69.7851H97.4887V87.7013C97.4887 89.0217 97.3888 90.1853 96.9382 91.1878C96.4853 92.1925 95.8659 93.0293 95.08 93.7028C94.2941 94.374 93.3661 94.8885 92.2938 95.2418C91.2215 95.5973 90.0781 95.7739 88.8637 95.7739C87.6493 95.7739 86.5171 95.6017 85.4714 95.2595C84.4213 94.9172 83.5244 94.4336 82.774 93.8088C82.0237 93.1839 81.422 92.4044 81.0046 91.5256C80.5762 90.627 80.363 89.6135 80.363 88.4807H84.6855C84.6855 89.5428 85.0363 90.362 85.7379 90.9405C86.4416 91.519 87.3763 91.8083 88.5418 91.8083C89.7806 91.8083 90.8285 91.4704 91.6855 90.7992C92.5446 90.1257 92.9731 89.2116 92.9731 88.0546V85.4535ZM131.589 80.1409C131.314 79.5403 130.95 79.0391 130.319 78.6372C129.689 78.2353 128.85 77.8887 127.802 77.5928C126.754 77.2969 125.466 76.937 123.943 76.513C123.015 76.2525 122.305 75.9809 121.819 75.6983C121.33 75.4156 121.086 75.0381 121.086 74.5655C121.086 74.0224 121.33 73.6382 121.819 73.4151C122.305 73.1899 123.026 73.0773 123.979 73.0773C124.98 73.0773 125.724 73.3003 126.212 73.6669C126.605 73.9605 126.878 74.3756 127.031 75.016H131.545C131.354 73.3069 130.728 72.1345 129.66 71.2071C128.492 70.1914 126.645 69.6636 124.123 69.6636C122.74 69.6636 121.574 69.7895 120.622 70.0611C119.67 70.3327 118.895 70.6882 118.3 71.1364C117.705 71.5847 117.358 72.1013 117.085 72.6909C116.812 73.2782 116.67 73.9186 116.675 74.5655C116.675 75.2986 116.775 75.9588 116.977 76.5484C117.181 77.1401 117.483 77.6811 118.067 78.1757C118.651 78.6725 119.465 79.1274 120.513 79.5403C121.561 79.9532 122.944 80.3484 124.658 80.726C125.611 80.938 126.319 81.1853 126.785 81.4701C127.249 81.7528 127.48 82.212 127.48 82.8502C127.48 83.4154 127.165 83.8372 126.534 84.1066C125.901 84.3781 125.147 84.515 124.265 84.515C123.217 84.515 122.365 84.2368 121.71 83.7864C121.184 83.4265 120.868 82.923 120.766 82.2805H115.971C116.042 83.1372 116.24 83.7533 116.568 84.3715C116.97 85.1377 117.545 85.8001 118.247 86.3102C118.972 86.8423 119.847 87.2619 120.871 87.5467C121.896 87.8293 123.037 87.9773 124.301 87.9773C126.874 87.9773 128.814 87.4672 130.124 86.4405C131.434 85.4137 132 84.1242 132 82.5653C132 81.5518 131.862 80.7437 131.589 80.1409ZM110.623 77.0695C110.598 76.4336 110.483 75.8727 110.279 75.3891C110.074 74.9056 109.801 74.5037 109.464 74.1858C109.133 73.87 108.738 73.6293 108.307 73.477C107.876 73.3246 107.424 73.2451 106.968 73.2473C106.027 73.2473 105.035 73.583 104.347 74.2542C103.661 74.9277 103.268 75.8661 103.172 77.0695H110.623ZM103.026 79.9731C103.099 81.2957 103.581 82.3467 104.291 83.124C105.004 83.9034 106.027 84.292 107.184 84.292C107.956 84.292 108.638 84.122 109.229 83.7798C109.821 83.4375 110.201 82.9606 110.37 82.3467H115.074C114.519 84.1397 113.698 85.5219 112.323 86.4891C110.947 87.4562 109.308 87.9397 107.401 87.9397C102.335 87.9397 98.7187 84.7778 98.7187 78.4517C98.7187 77.107 98.9118 75.8904 99.2981 74.804C99.6844 73.7176 100.244 72.7858 100.981 72.0086C101.716 71.2292 102.615 70.633 103.676 70.2201C104.737 69.8072 105.739 69.5996 107.113 69.5996C109.861 69.5996 111.764 70.4608 113.176 72.1852C114.586 73.9075 115.238 76.5042 115.238 79.9731H103.026Z" fill="white"/>
<defs>
<linearGradient id="paint0_linear_662_1650" x1="-18.5714" y1="-114.286" x2="198.664" y2="165.198" gradientUnits="userSpaceOnUse">
<stop offset="0.166667" stop-color="#FEFEFE"/>
<stop offset="0.634075" stop-color="#F4F4F4"/>
<stop offset="0.9375" stop-color="#DFDFDF"/>
</linearGradient>
<linearGradient id="paint1_linear_662_1650" x1="178.571" y1="274.286" x2="-48.5291" y2="-110.48" gradientUnits="userSpaceOnUse">
<stop offset="0.318171" stop-color="#3A4C64"/>
<stop offset="0.938" stop-color="#4F6687"/>
</linearGradient>
</defs>
</svg>
