<svg width="113" height="73" viewBox="0 0 113 73" fill="none" xmlns="http://www.w3.org/2000/svg">
<path d="M29.6916 9.84653H41.1312V11.9836H36.6332V23.9972H34.1598V11.9836H29.6816V9.84653H29.6916ZM40.6425 13.7512H42.7569V15.7285H42.7968C42.8666 15.4489 42.9963 15.1792 43.1858 14.9196C43.3753 14.6599 43.6047 14.4103 43.874 14.2006C44.1432 13.9809 44.4425 13.8111 44.7716 13.6713C45.1007 13.5415 45.4398 13.4716 45.7789 13.4716C46.0382 13.4716 46.2277 13.4816 46.3274 13.4915C46.4272 13.5015 46.5269 13.5215 46.6366 13.5315V15.7085C46.4771 15.6785 46.3175 15.6586 46.1479 15.6386C45.9784 15.6186 45.8188 15.6086 45.6592 15.6086C45.2802 15.6086 44.9212 15.6885 44.5821 15.8383C44.243 15.9881 43.9538 16.2178 43.7044 16.5074C43.4551 16.807 43.2556 17.1665 43.106 17.6059C42.9564 18.0453 42.8866 18.5446 42.8866 19.1138V23.9872H40.6326V13.7512H40.6425ZM56.9991 23.9972H54.785V22.5691H54.7451C54.4658 23.0884 54.0569 23.4978 53.5084 23.8074C52.9598 24.117 52.4013 24.2768 51.8328 24.2768C50.4864 24.2768 49.509 23.9472 48.9106 23.2781C48.3122 22.6091 48.013 21.6004 48.013 20.2523V13.7512H50.267V20.0326C50.267 20.9314 50.4365 21.5705 50.7856 21.94C51.1247 22.3095 51.6134 22.4992 52.2318 22.4992C52.7105 22.4992 53.0995 22.4293 53.4186 22.2795C53.7378 22.1297 53.9971 21.94 54.1866 21.6903C54.3861 21.4506 54.5257 21.1511 54.6154 20.8115C54.7052 20.472 54.7451 20.1025 54.7451 19.703V13.7612H56.9991V23.9972ZM60.8389 20.7117C60.9087 21.3708 61.1581 21.8301 61.5869 22.0998C62.0258 22.3594 62.5444 22.4992 63.1528 22.4992C63.3622 22.4992 63.6016 22.4792 63.8709 22.4493C64.1402 22.4193 64.3995 22.3494 64.6289 22.2595C64.8682 22.1697 65.0577 22.0299 65.2173 21.8501C65.3669 21.6703 65.4367 21.4407 65.4267 21.1511C65.4168 20.8615 65.3071 20.6218 65.1076 20.442C64.9081 20.2523 64.6588 20.1125 64.3496 19.9926C64.0404 19.8828 63.6913 19.7829 63.2924 19.703C62.8935 19.6231 62.4945 19.5333 62.0856 19.4434C61.6667 19.3535 61.2578 19.2337 60.8688 19.1039C60.4799 18.974 60.1308 18.7943 59.8216 18.5646C59.5124 18.3449 59.2631 18.0553 59.0836 17.7058C58.8941 17.3563 58.8043 16.9268 58.8043 16.4075C58.8043 15.8483 58.944 15.3889 59.2132 15.0095C59.4825 14.63 59.8316 14.3304 60.2405 14.1007C60.6594 13.871 61.1182 13.7112 61.6268 13.6114C62.1355 13.5215 62.6242 13.4716 63.083 13.4716C63.6116 13.4716 64.1202 13.5315 64.5989 13.6413C65.0777 13.7512 65.5165 13.9309 65.9055 14.1906C66.2944 14.4402 66.6136 14.7698 66.8729 15.1692C67.1322 15.5687 67.2918 16.058 67.3616 16.6272H65.0079C64.8981 16.088 64.6588 15.7185 64.2698 15.5387C63.8809 15.349 63.432 15.2591 62.9334 15.2591C62.7738 15.2591 62.5843 15.2691 62.3649 15.2991C62.1455 15.329 61.946 15.379 61.7465 15.4489C61.557 15.5188 61.3974 15.6286 61.2578 15.7684C61.1282 15.9082 61.0583 16.088 61.0583 16.3177C61.0583 16.5973 61.1581 16.817 61.3476 16.9868C61.5371 17.1565 61.7864 17.2963 62.0956 17.4162C62.4048 17.526 62.7538 17.6259 63.1528 17.7058C63.5517 17.7857 63.9606 17.8755 64.3795 17.9654C64.7884 18.0553 65.1874 18.1751 65.5863 18.305C65.9853 18.4348 66.3343 18.6145 66.6435 18.8442C66.9527 19.0739 67.202 19.3535 67.3915 19.6931C67.581 20.0326 67.6808 20.462 67.6808 20.9613C67.6808 21.5705 67.5411 22.0798 67.2619 22.5092C66.9826 22.9286 66.6236 23.2781 66.1847 23.5378C65.7459 23.7974 65.2472 23.9972 64.7086 24.117C64.1701 24.2368 63.6315 24.2968 63.1029 24.2968C62.4546 24.2968 61.8562 24.2268 61.3077 24.0771C60.7591 23.9273 60.2804 23.7076 59.8815 23.418C59.4825 23.1184 59.1634 22.7489 58.934 22.3095C58.7046 21.8701 58.5849 21.3408 58.565 20.7316H60.8389V20.7117ZM68.2792 13.7512H69.9846V10.6754H72.2387V13.7512H74.2733V15.4389H72.2387V20.9114C72.2387 21.1511 72.2486 21.3508 72.2686 21.5305C72.2885 21.7003 72.3384 21.8501 72.4082 21.9699C72.478 22.0898 72.5877 22.1796 72.7373 22.2396C72.8869 22.2995 73.0764 22.3294 73.3357 22.3294C73.4953 22.3294 73.6549 22.3294 73.8145 22.3195C73.974 22.3095 74.1336 22.2895 74.2932 22.2496V23.9972C74.0439 24.0271 73.7945 24.0471 73.5651 24.0771C73.3258 24.107 73.0864 24.117 72.8371 24.117C72.2387 24.117 71.7599 24.0571 71.4009 23.9472C71.0418 23.8374 70.7526 23.6676 70.5531 23.4479C70.3437 23.2282 70.214 22.9586 70.1342 22.629C70.0644 22.2995 70.0146 21.92 70.0046 21.5006V15.4588H68.2991V13.7512H68.2792ZM75.869 13.7512H78.0034V15.1393H78.0433C78.3624 14.5401 78.8012 14.1207 79.3697 13.861C79.9382 13.6014 80.5466 13.4716 81.2148 13.4716C82.0227 13.4716 82.7208 13.6114 83.3192 13.901C83.9177 14.1806 84.4163 14.5701 84.8153 15.0694C85.2142 15.5687 85.5034 16.1479 85.7029 16.807C85.9024 17.4661 86.0021 18.1751 86.0021 18.9241C86.0021 19.6132 85.9124 20.2822 85.7328 20.9214C85.5533 21.5705 85.284 22.1397 84.925 22.639C84.5659 23.1383 84.1072 23.5278 83.5486 23.8274C82.9901 24.127 82.3418 24.2768 81.5839 24.2768C81.2547 24.2768 80.9256 24.2468 80.5965 24.1869C80.2673 24.127 79.9482 24.0271 79.649 23.8973C79.3498 23.7675 79.0606 23.5977 78.8112 23.388C78.5519 23.1783 78.3425 22.9386 78.1629 22.669H78.123V27.782H75.869V13.7512ZM83.7481 18.8842C83.7481 18.4248 83.6883 17.9754 83.5686 17.536C83.4489 17.0966 83.2694 16.7171 83.03 16.3776C82.7906 16.0381 82.4914 15.7684 82.1424 15.5687C81.7833 15.369 81.3744 15.2591 80.9156 15.2591C79.9681 15.2591 79.25 15.5887 78.7713 16.2478C78.2926 16.9069 78.0532 17.7857 78.0532 18.8842C78.0532 19.4035 78.1131 19.8828 78.2427 20.3222C78.3724 20.7616 78.5519 21.1411 78.8112 21.4606C79.0606 21.7802 79.3598 22.0299 79.7088 22.2096C80.0579 22.3993 80.4668 22.4892 80.9256 22.4892C81.4442 22.4892 81.8731 22.3794 82.2321 22.1697C82.5912 21.96 82.8804 21.6803 83.1098 21.3508C83.3392 21.0112 83.5087 20.6318 83.6085 20.2024C83.6982 19.7729 83.7481 19.3335 83.7481 18.8842ZM87.7275 9.84653H89.9816V11.9836H87.7275V9.84653ZM87.7275 13.7512H89.9816V23.9972H87.7275V13.7512ZM91.9962 9.84653H94.2502V23.9972H91.9962V9.84653ZM101.162 24.2768C100.344 24.2768 99.616 24.137 98.9777 23.8673C98.3394 23.5977 97.8008 23.2182 97.352 22.7489C96.9132 22.2695 96.5741 21.7003 96.3447 21.0412C96.1153 20.3821 95.9956 19.6531 95.9956 18.8642C95.9956 18.0853 96.1153 17.3662 96.3447 16.7071C96.5741 16.048 96.9132 15.4788 97.352 14.9995C97.7908 14.5201 98.3394 14.1506 98.9777 13.881C99.616 13.6114 100.344 13.4716 101.162 13.4716C101.98 13.4716 102.708 13.6114 103.346 13.881C103.984 14.1506 104.523 14.5301 104.972 14.9995C105.411 15.4788 105.75 16.048 105.979 16.7071C106.208 17.3662 106.328 18.0853 106.328 18.8642C106.328 19.6531 106.208 20.3821 105.979 21.0412C105.75 21.7003 105.411 22.2695 104.972 22.7489C104.533 23.2282 103.984 23.5977 103.346 23.8673C102.708 24.137 101.98 24.2768 101.162 24.2768ZM101.162 22.4892C101.661 22.4892 102.099 22.3794 102.468 22.1697C102.837 21.96 103.137 21.6803 103.376 21.3408C103.615 21.0013 103.785 20.6118 103.905 20.1824C104.014 19.753 104.074 19.3136 104.074 18.8642C104.074 18.4248 104.014 17.9954 103.905 17.556C103.795 17.1166 103.615 16.7371 103.376 16.3976C103.137 16.058 102.837 15.7884 102.468 15.5787C102.099 15.369 101.661 15.2591 101.162 15.2591C100.663 15.2591 100.224 15.369 99.8553 15.5787C99.4863 15.7884 99.1871 16.068 98.9478 16.3976C98.7084 16.7371 98.5388 17.1166 98.4192 17.556C98.3094 17.9954 98.2496 18.4248 98.2496 18.8642C98.2496 19.3136 98.3094 19.753 98.4192 20.1824C98.5289 20.6118 98.7084 21.0013 98.9478 21.3408C99.1871 21.6803 99.4863 21.96 99.8553 22.1697C100.224 22.3894 100.663 22.4892 101.162 22.4892ZM106.986 13.7512H108.692V10.6754H110.946V13.7512H112.981V15.4389H110.946V20.9114C110.946 21.1511 110.956 21.3508 110.976 21.5305C110.996 21.7003 111.046 21.8501 111.115 21.9699C111.185 22.0898 111.295 22.1796 111.445 22.2396C111.594 22.2995 111.784 22.3294 112.043 22.3294C112.203 22.3294 112.362 22.3294 112.522 22.3195C112.681 22.3095 112.841 22.2895 113 22.2496V23.9972C112.751 24.0271 112.502 24.0471 112.272 24.0771C112.033 24.107 111.794 24.117 111.544 24.117C110.946 24.117 110.467 24.0571 110.108 23.9472C109.749 23.8374 109.46 23.6676 109.26 23.4479C109.051 23.2282 108.921 22.9586 108.841 22.629C108.772 22.2995 108.722 21.92 108.712 21.5006V15.4588H107.006V13.7512H106.986Z" fill="white"/>
<path d="M27.0582 9.84653H16.7256L13.5341 0L10.3326 9.84653L0 9.83654L8.36778 15.9282L5.16628 25.7647L13.5341 19.6831L21.8919 25.7647L18.7003 15.9282L27.0582 9.84653Z" fill="white"/>
<path d="M19.4176 18.1552L18.6995 15.9282L13.5332 19.6831L19.4176 18.1552Z" fill="black"/>
<rect x="0.464355" y="31.7821" width="21.5088" height="21.5088" fill="white"/>
<path d="M11.2186 34.4706L13.0295 40.0439H18.8897L14.1487 43.4884L15.9596 49.0618L11.2186 45.6173L6.47768 49.0618L8.28857 43.4884L3.5476 40.0439H9.40776L11.2186 34.4706Z" fill="black"/>
<rect x="23.105" y="31.782" width="21.5088" height="21.5088" fill="white"/>
<path d="M33.8593 34.4705L35.6702 40.0438H41.5303L36.7893 43.4883L38.6002 49.0617L33.8593 45.6171L29.1183 49.0617L30.9292 43.4883L26.1882 40.0438H32.0484L33.8593 34.4705Z" fill="black"/>
<rect x="45.7466" y="31.782" width="21.5088" height="21.5088" fill="white"/>
<path d="M56.5009 34.4706L58.3118 40.0439H64.1719L59.431 43.4884L61.2418 49.0618L56.5009 45.6173L51.7599 49.0618L53.5708 43.4884L48.8298 40.0439H54.69L56.5009 34.4706Z" fill="black"/>
<rect x="68.3862" y="31.782" width="21.5088" height="21.5088" fill="white"/>
<path d="M79.1405 34.4706L80.9514 40.0439H86.8116L82.0706 43.4884L83.8815 49.0618L79.1405 45.6173L74.3996 49.0618L76.2104 43.4884L71.4695 40.0439H77.3296L79.1405 34.4706Z" fill="black"/>
<rect x="91.2778" y="32.0321" width="21.0088" height="21.0088" stroke="white" stroke-width="0.5"/>
<rect x="91" y="32" width="11" height="21" fill="white"/>
<path d="M101.782 35.2796L103.355 40.1212L103.411 40.2939H103.593H108.684L104.565 43.2862L104.418 43.3929L104.474 43.5657L106.048 48.4073L101.929 45.415L101.782 45.3082L101.635 45.415L97.5167 48.4073L99.0898 43.5657L99.1459 43.3929L98.999 43.2862L94.8805 40.2939H99.9712H100.153L100.209 40.1212L101.782 35.2796Z" fill="black" stroke="white" stroke-width="0.5"/>
<path d="M1.51371 69.2909H7.22394V67.9656H3.09467V65.5835H6.89581V64.2583H3.09467V61.8889H7.18984V60.5637H1.51371V69.2909ZM9.63595 62.7455H7.99959L9.94277 66.0182L7.94845 69.2909H9.58482L10.957 66.9344L12.3419 69.2909H13.9655L11.9584 66.0182L13.9314 62.7455H12.2993L10.957 65.1617L9.63595 62.7455ZM17.3736 69.4188C19.0185 69.4188 20.0668 68.4429 20.1776 67.0537H18.7032C18.5711 67.7568 18.0639 68.1617 17.3864 68.1617C16.4233 68.1617 15.8012 67.3563 15.8012 66.0182C15.8012 64.6972 16.4361 63.9046 17.3864 63.9046C18.1279 63.9046 18.5838 64.3818 18.7032 65.0125H20.1776C20.0711 63.5935 18.9631 62.6602 17.3651 62.6602C15.4475 62.6602 14.2372 64.0452 14.2372 66.0438C14.2372 68.0253 15.4176 69.4188 17.3736 69.4188ZM23.982 69.4188C25.5076 69.4188 26.5559 68.673 26.8286 67.5352L25.3883 67.3733C25.1794 67.9273 24.6681 68.2171 24.0033 68.2171C23.0062 68.2171 22.3456 67.5608 22.3329 66.4401H26.8925V65.9671C26.8925 63.6702 25.5118 62.6602 23.901 62.6602C22.026 62.6602 20.803 64.0367 20.803 66.0565C20.803 68.1105 22.009 69.4188 23.982 69.4188ZM22.3371 65.4003C22.384 64.5651 23.0019 63.8619 23.9223 63.8619C24.8087 63.8619 25.4053 64.5097 25.4138 65.4003H22.3371ZM29.3802 60.5637H27.8376V69.2909H29.3802V60.5637ZM32.1491 60.5637H30.6065V69.2909H32.1491V60.5637ZM36.2731 69.4188C37.7987 69.4188 38.847 68.673 39.1197 67.5352L37.6793 67.3733C37.4705 67.9273 36.9592 68.2171 36.2944 68.2171C35.2972 68.2171 34.6367 67.5608 34.6239 66.4401H39.1836V65.9671C39.1836 63.6702 37.8029 62.6602 36.1921 62.6602C34.3171 62.6602 33.0941 64.0367 33.0941 66.0565C33.0941 68.1105 34.3001 69.4188 36.2731 69.4188ZM34.6282 65.4003C34.6751 64.5651 35.293 63.8619 36.2134 63.8619C37.0998 63.8619 37.6964 64.5097 37.7049 65.4003H34.6282ZM41.6713 65.4557C41.6713 64.5097 42.2423 63.9642 43.0562 63.9642C43.8531 63.9642 44.3304 64.4884 44.3304 65.3619V69.2909H45.873V65.1233C45.8772 63.5551 44.9823 62.6602 43.6315 62.6602C42.6514 62.6602 41.9781 63.129 41.6798 63.8577H41.6031V62.7455H40.1287V69.2909H41.6713V65.4557ZM50.3496 62.7455H49.0584V61.1773H47.5158V62.7455H46.5868V63.9387H47.5158V67.5779C47.5073 68.8094 48.4022 69.4145 49.5613 69.3804C50.0002 69.3676 50.3027 69.2824 50.4689 69.227L50.209 68.021C50.1238 68.0423 49.949 68.0807 49.7573 68.0807C49.3695 68.0807 49.0584 67.9443 49.0584 67.3222V63.9387H50.3496V62.7455Z" fill="white"/>
<path d="M53.8026 67.5012H57.9105V69.2909H58.9162V67.5012H60.1094V66.5637H58.9162V60.5637H57.6378L53.8026 66.6318V67.5012ZM57.9105 66.5637H54.9446V66.4955L57.8423 61.9102H57.9105V66.5637ZM61.4997 69.2909H62.5565V66.4614L63.6475 65.2341L66.6815 69.2909H67.96L64.2952 64.5012L67.96 60.5637H66.5793L62.6588 64.8932H62.5565V60.5637H61.4997V69.2909ZM71.8465 69.2909H72.8522V65.1489C72.8522 64.2625 73.551 63.6148 74.5056 63.6148C74.7741 63.6148 75.051 63.6659 75.1192 63.683V62.6602C75.0042 62.6517 74.74 62.6432 74.5908 62.6432C73.8067 62.6432 73.1249 63.0864 72.8863 63.7341H72.8181V62.7455H71.8465V69.2909ZM78.4964 69.4273C79.826 69.4273 80.7976 68.7625 81.1044 67.7739L80.1328 67.5012C79.8771 68.183 79.2848 68.5239 78.4964 68.5239C77.316 68.5239 76.5021 67.7611 76.4552 66.3591H81.2067V65.933C81.2067 63.4955 79.7578 62.6602 78.3942 62.6602C76.6214 62.6602 75.4453 64.058 75.4453 66.0693C75.4453 68.0807 76.6044 69.4273 78.4964 69.4273ZM76.4552 65.4898C76.5234 64.4713 77.2436 63.5637 78.3942 63.5637C79.4851 63.5637 80.1839 64.3818 80.1839 65.4898H76.4552ZM87.5295 62.7455H86.4386L84.6318 67.9614H84.5636L82.7568 62.7455H81.6659L84.0864 69.2909H85.1091L87.5295 62.7455ZM88.497 69.2909H89.5026V62.7455H88.497V69.2909ZM89.0083 61.6546C89.4004 61.6546 89.7242 61.3477 89.7242 60.9727C89.7242 60.5977 89.4004 60.2909 89.0083 60.2909C88.6163 60.2909 88.2924 60.5977 88.2924 60.9727C88.2924 61.3477 88.6163 61.6546 89.0083 61.6546ZM93.7289 69.4273C95.0585 69.4273 96.0301 68.7625 96.3369 67.7739L95.3653 67.5012C95.1096 68.183 94.5173 68.5239 93.7289 68.5239C92.5485 68.5239 91.7346 67.7611 91.6877 66.3591H96.4392V65.933C96.4392 63.4955 94.9903 62.6602 93.6267 62.6602C91.8539 62.6602 90.6778 64.058 90.6778 66.0693C90.6778 68.0807 91.8369 69.4273 93.7289 69.4273ZM91.6877 65.4898C91.7559 64.4713 92.4761 63.5637 93.6267 63.5637C94.7176 63.5637 95.4164 64.3818 95.4164 65.4898H91.6877ZM99.0919 69.2909H100.081L101.512 64.2625H101.615L103.046 69.2909H104.035L106.029 62.7455H104.973L103.558 67.7398H103.49L102.109 62.7455H101.035L99.6374 67.7568H99.5692L98.1544 62.7455H97.0976L99.0919 69.2909ZM111.635 64.2114C111.32 63.2824 110.613 62.6602 109.317 62.6602C107.936 62.6602 106.914 63.4443 106.914 64.5523C106.914 65.4557 107.451 66.0608 108.652 66.3421L109.743 66.5977C110.404 66.7512 110.715 67.0665 110.715 67.5182C110.715 68.0807 110.118 68.5409 109.181 68.5409C108.358 68.5409 107.843 68.1872 107.664 67.4841L106.709 67.7227C106.944 68.835 107.86 69.4273 109.198 69.4273C110.719 69.4273 111.755 68.5963 111.755 67.4671C111.755 66.5551 111.184 65.9798 110.016 65.6943L109.044 65.4557C108.269 65.2639 107.919 65.004 107.919 64.5012C107.919 63.9387 108.516 63.5296 109.317 63.5296C110.195 63.5296 110.557 64.0154 110.732 64.4671L111.635 64.2114Z" fill="#808080"/>
</svg>
